<?xml version="1.0" standalone="no"?>
<!DOCTYPE svg PUBLIC "-//W3C//DTD SVG 20010904//EN"
 "http://www.w3.org/TR/2001/REC-SVG-20010904/DTD/svg10.dtd">
<svg version="1.0" xmlns="http://www.w3.org/2000/svg"
 width="344.000000pt" height="344.000000pt" viewBox="0 0 344.000000 344.000000"
 preserveAspectRatio="xMidYMid meet">
<metadata>
Created by potrace 1.14, written by Peter Selinger 2001-2017
</metadata>
<g transform="translate(0.000000,344.000000) scale(0.100000,-0.100000)"
fill="#000000" stroke="none">
<path d="M1438 3435 c-2 -2 -46 -6 -98 -9 -93 -5 -226 -21 -265 -32 -90 -24
-180 -109 -216 -202 -21 -54 -22 -73 -23 -357 -1 -165 2 -322 7 -349 25 -144
144 -257 289 -273 85 -9 81 1 82 -196 1 -157 3 -177 20 -196 37 -40 59 -28
187 100 93 92 118 123 108 130 -8 5 -16 9 -20 9 -20 0 -107 105 -133 160 l-31
65 -3 252 c-4 280 2 315 59 405 53 82 149 147 239 162 179 29 771 21 823 -11
14 -8 -1 63 -23 114 -48 109 -135 177 -253 197 -15 3 -58 8 -95 11 -37 4 -78
9 -92 11 -28 6 -557 14 -562 9z"/>
<path d="M1858 2995 c-2 -1 -50 -5 -106 -8 -119 -7 -172 -27 -223 -84 -58 -67
-62 -87 -64 -318 -1 -281 7 -321 79 -389 60 -55 91 -64 248 -71 238 -12 203 1
326 -122 131 -133 150 -147 185 -134 14 5 29 15 33 22 4 7 9 60 10 118 1 58 2
109 3 114 1 4 13 7 29 7 68 1 157 64 193 137 22 46 23 58 23 283 0 263 -4 288
-63 353 -41 46 -94 72 -166 82 -49 7 -500 16 -507 10z"/>
<path d="M273 1618 c-41 -9 -102 -62 -104 -91 -1 -7 -2 -25 -4 -42 -1 -16 4
-59 12 -95 17 -79 12 -58 63 -265 23 -93 43 -177 45 -185 24 -108 173 -695
191 -754 13 -43 34 -92 45 -108 45 -62 145 -85 228 -52 64 25 103 90 140 234
10 41 44 167 75 280 30 113 84 311 119 440 61 223 65 233 75 200 10 -31 57
-201 67 -240 3 -14 22 -85 61 -227 8 -29 21 -79 29 -110 128 -474 137 -501
178 -541 40 -38 75 -52 134 -52 67 0 128 33 159 85 17 30 66 210 163 597 l139
553 1 -555 c1 -556 1 -556 24 -600 28 -57 68 -79 138 -77 66 2 100 25 130 86
21 41 22 58 23 299 l1 256 206 2 c233 2 322 16 426 66 159 77 234 205 238 406
4 165 -34 272 -129 367 -59 59 -121 90 -220 113 -58 12 -148 15 -496 16 -234
0 -446 -3 -472 -7 -65 -11 -100 -48 -121 -129 -14 -50 -147 -635 -163 -713 -2
-11 -13 -60 -24 -110 -12 -49 -24 -106 -27 -125 -3 -19 -6 -36 -8 -38 -3 -3
-51 170 -145 523 -88 330 -138 495 -155 512 -8 8 -15 18 -15 23 0 19 -62 52
-112 59 -106 17 -186 -26 -229 -124 -11 -24 -44 -136 -74 -249 -30 -113 -80
-299 -111 -413 -30 -115 -57 -215 -59 -223 -15 -57 -33 -114 -34 -106 -1 11
-47 224 -62 286 -6 25 -13 54 -15 65 -2 11 -8 38 -13 60 -6 22 -24 103 -41
180 -91 417 -114 492 -157 510 -40 16 -80 21 -120 13z m2477 -243 c62 -9 124
-38 152 -70 56 -64 69 -195 27 -281 -45 -94 -136 -125 -368 -127 l-156 -2 -1
240 c0 132 0 243 2 246 4 7 288 3 344 -6z"/>
</g>
</svg>
