<?xml version="1.0" encoding="UTF-8"?>
<!-- Generated by Pixelmator Pro 3.3.2 -->
<svg width="1990" height="800" viewBox="0 0 1990 800" xmlns="http://www.w3.org/2000/svg" xmlns:xlink="http://www.w3.org/1999/xlink">
    <path id="Path" fill="#6366f1" fill-rule="evenodd" stroke="none" d="M 226.306641 730.416016 C 223.096756 730.404541 219.861786 729.778259 216.779297 728.5 C 207.385101 724.604309 201.257095 715.429077 201.248047 705.25 L 201.248047 569.908203 C 189.079285 568.611938 176.925613 567.183044 164.789063 565.611328 C 97.438278 556.812622 50.3125 498.141846 50.3125 431.949219 L 50.3125 222.925781 C 50.3125 156.766724 97.438278 98.064026 164.789063 89.298828 L 164.789063 89.263672 C 234.38707 80.196167 305.326782 75.5625 377.339844 75.5625 C 449.352875 75.5625 520.292603 80.229736 589.890625 89.263672 C 614.06604 92.41217 635.634705 101.987732 653.351563 116.033203 C 649.975342 130.702332 649.869141 146.358887 653.662109 161.982422 L 664.578125 206.943359 C 572.220825 199.535156 479.407227 199.668518 387.066406 207.34375 C 307.976257 213.926086 251.560547 280.891052 251.560547 356.251953 L 251.560547 500.189453 C 251.49614 556.595947 283.018555 608.281738 333.166016 633.986328 L 244.179688 723.048828 C 239.346039 727.881958 232.879257 730.439453 226.306641 730.416016 Z M 628.994141 705.228516 C 622.421814 705.251953 615.95697 702.694458 611.123047 697.861328 L 517.810547 604.466797 C 475.280334 604.198059 433.119476 602.351318 391.427734 598.925781 C 339.707184 594.694275 301.871094 550.799377 301.871094 500.189453 L 301.871094 356.285156 C 301.871094 305.708771 339.571198 261.849487 391.224609 257.550781 C 436.404694 253.789368 482.122681 251.875 528.275391 251.875 C 574.015503 251.860535 619.738342 253.74353 665.324219 257.517578 C 669.400696 257.85968 673.389709 258.448608 677.28125 259.267578 L 745.806641 541.53125 C 731.691956 572.839905 701.922119 595.938965 665.123047 598.925781 L 654.054688 599.798828 L 654.054688 680.0625 C 654.044678 690.241577 647.916382 699.416809 638.521484 703.3125 C 635.438782 704.590759 632.203918 705.217041 628.994141 705.228516 Z"/>
    <linearGradient id="linearGradient1" x1="697.283161" y1="399.849878" x2="1943.550016" y2="399.849878" gradientUnits="userSpaceOnUse">
        <stop offset="0" stop-color="#c026d3" stop-opacity="1"/>
        <stop offset="1" stop-color="#6366f1" stop-opacity="1"/>
    </linearGradient>
    <path id="path2" fill="url(#linearGradient1)" stroke="none" d="M 1388.022339 90.255188 C 1378.157837 97.349976 1373.75061 107.790466 1370.202026 118.591125 C 1366.656494 129.391846 1362.648438 144.674927 1358.673828 163.71875 L 1276.91687 528.9375 L 1184.678345 186.807312 C 1177.01416 158.668152 1170.352783 139.208984 1165.811401 126.987 C 1161.269897 114.765015 1153.484985 102.728699 1141.7052 92.354187 C 1129.922241 81.979614 1112.682007 77.661438 1091.393311 77.661438 C 1070.383057 77.661438 1054.333496 82.406128 1042.12793 92.354187 C 1029.922241 102.302246 1021.318848 114.39325 1015.925354 128.036438 C 1010.528564 141.679688 1003.870667 160.657654 997.055115 186.807312 L 905.866394 528.9375 L 824.109497 163.71875 C 818.14917 135.57959 811.095459 114.48053 803.146179 99.7005 C 795.196899 84.920471 780.01947 77.661438 757.026917 77.661438 C 740.279724 77.661438 726.453979 82.318481 715.100342 93.403625 C 703.746582 104.488831 697.283142 118.13208 697.283142 134.333313 C 697.283142 147.12384 700.469604 166.561279 706.714966 191.005188 L 810.484985 611.848022 C 813.60437 624.351135 818.038513 637.089294 822.013184 651.724915 C 825.987793 666.363831 830.442139 679.897949 836.687439 690.557312 C 842.9328 701.216614 851.764221 708.866943 861.843445 714.693665 C 871.922607 720.523682 883.963928 723.089478 899.577332 723.089478 C 918.880371 723.092773 935.104309 718.203125 946.743164 708.400085 C 958.385254 698.59375 966.170227 688.22998 970.852661 675.864563 C 975.534973 663.499207 981.770325 642.368591 989.719604 613.943665 L 1091.393311 239.28125 L 1193.063721 613.943665 C 1201.294678 643.221619 1207.38916 664.832397 1211.930664 676.912415 C 1216.472168 688.995728 1224.397949 699.782654 1236.036743 709.447937 C 1247.678955 719.11322 1262.853027 723.089478 1282.156006 723.089478 C 1302.596069 723.092773 1319.158691 718.347534 1330.374878 708.400085 C 1341.587769 698.449341 1349.798706 686.984009 1354.481079 673.765625 C 1359.163452 660.547241 1364.154297 640.269592 1371.251709 611.848022 L 1467.682983 224.588562 L 1467.682983 645.431335 C 1467.682983 670.874084 1472.814697 691.044189 1484.453613 704.202148 C 1496.092407 717.356812 1511.551636 723.089478 1530.572876 723.089478 C 1548.742065 723.092773 1563.721802 716.450012 1575.642334 703.151062 C 1587.566284 689.852051 1593.462769 671.162964 1593.462769 645.431335 L 1593.462769 464.920929 L 1709.807495 464.920929 C 1787.307983 464.917633 1845.676514 447.937897 1884.852783 414.545929 C 1924.028931 381.150665 1943.549927 332.380951 1943.549927 267.617188 C 1943.549927 237.259155 1938.528809 210.04425 1928.875732 185.757813 C 1919.222534 161.471375 1905.544434 140.607727 1886.949097 123.838562 C 1868.353638 107.069397 1845.414917 95.384399 1819.866577 88.15625 C 1794.033081 80.638916 1757.784912 76.612 1709.807495 76.612 L 1547.343506 76.612 C 1445.206909 76.73999 1407.945923 75.923828 1388.022339 90.255188 Z M 1593.462769 173.164063 L 1678.365845 173.164063 C 1734.856201 173.164063 1772.348633 182.706726 1790.517822 201.5 C 1806.698242 219.136597 1814.624023 242.720459 1814.624023 270.765625 C 1814.624023 294.184631 1809.408325 312.981232 1798.903198 327.4375 C 1788.397949 341.895142 1773.844482 352.561188 1753.83374 358.921875 C 1733.819702 365.282562 1708.170654 368.368835 1678.365845 368.368835 L 1593.462769 368.368835 L 1593.462769 173.164063 Z"/>
</svg>
