<?xml version="1.0" encoding="UTF-8"?>
<!-- Generated by Pixelmator Pro 3.2.3 -->
<svg width="420" height="150" viewBox="0 0 420 150" xmlns="http://www.w3.org/2000/svg" xmlns:xlink="http://www.w3.org/1999/xlink">
    <path id="Path" fill="#1b1b1b" fill-rule="evenodd" stroke="none" d="M 17.039063 150 C -8.290913 135.12001 1.280411 107.58992 20.900391 109.419922 C 30.030382 110.219925 36.770397 116.360626 44.400391 110.890625 C 52.550381 105.040634 42.960938 92.089844 42.960938 92.089844 C 42.960938 92.089844 30.999603 93.53038 25.099609 90.900391 C 11.819622 83.490395 29.819464 60.380157 40.189453 57.160156 C 45.689449 55.45015 46.570084 57.999062 52.580078 56.789063 C 52.460075 57.399063 51.780548 61.469849 54.560547 63.339844 C 58.080544 65.29985 63.280392 63.310226 67.150391 59.990234 C 68.390388 58.930229 69.56031 58.259842 70.570313 57.839844 C 71.290314 57.539848 72.060074 57.409454 72.830078 57.439453 C 83.770065 57.859451 93.730247 51.990486 100.240234 56.230469 C 109.910233 65.440468 106.439056 86.189857 100.539063 92.089844 L 100.509766 92.099609 C 96.539772 96.069611 91.189293 97.620705 85.029297 96.720703 C 78.599304 95.780701 70.730934 92.099609 61.210938 92.099609 C 61.210938 92.099609 68.850159 93.239532 74.660156 95.269531 C 80.470146 97.29953 86.160873 102.090454 96.630859 98.230469 C 96.630859 98.230469 89.190392 107.319229 86.150391 114.449219 C 79.560394 130.999207 74.5103 136.960785 59.820313 138.800781 C 42.840328 140.920776 31.33046 128.150391 22.730469 128.150391 C 10.340482 128.150391 11.529067 140.640015 17.039063 150 Z M 57.367188 62.658203 C 51.948444 62.599777 53.519531 56.710938 53.519531 56.710938 C 53.519531 56.710938 54.069691 59.119446 56.429688 58.439453 C 57.199688 58.219452 57.52039 55.960228 56.650391 53.240234 C 56.420387 52.54023 56.009766 49.790154 56.009766 48.910156 L 56.050781 45.789063 C 56.050781 45.789063 53.940468 45.519455 52.980469 45.439453 C 52.02047 45.369446 52.019531 44.529922 52.269531 43.919922 C 52.489532 43.409927 54.300781 41.240234 54.300781 41.240234 C 57.230778 37.730225 57.080078 34.339844 57.080078 34.339844 L 56.279297 32.160156 C 57.209297 29.680153 58.469219 26.249138 60.199219 24.369141 C 60.199219 24.369141 60.190701 24.019691 60.220703 23.429688 L 59.339844 21.689453 C 58.789845 19.699448 58.590469 17.640076 58.730469 15.580078 L 60.060547 0.060547 C 60.060547 -0.019455 60.179688 -0.019455 60.179688 0.060547 L 61.230469 15.990234 C 61.250469 16.280228 61.269531 16.569382 61.269531 16.859375 C 62.559532 12.579376 65.030632 9.219604 71.140625 10.099609 C 75.680618 10.749603 80.199928 17.349457 84.419922 20.939453 L 84.429688 20.929688 C 90.909683 26.449684 96.890778 29.860558 95.050781 37.310547 C 93.290779 44.450539 90.560692 47.940079 83.220703 48.580078 C 82.440704 53.240074 78.080933 54.369522 71.210938 54.519531 C 70.920937 54.519531 70.639137 54.579689 70.369141 54.679688 C 66.059143 56.339684 63.530384 61.829063 58.900391 62.539063 C 58.335548 62.625 57.826405 62.663155 57.367188 62.658203 Z"/>
    <path id="path1" fill="#1b1b1b" fill-rule="evenodd" stroke="none" d="M 134.839996 109.300003 L 134.839996 60.169998 L 138.270004 60.169998 L 138.270004 109.300003 L 134.839996 109.300003 Z M 180.669998 109.300003 L 162.360001 63.940002 L 162.089996 63.940002 C 162.270004 66.720001 162.360001 69.559998 162.360001 72.480003 L 162.360001 109.309998 L 159.070007 109.309998 L 159.070007 60.169998 L 164.380005 60.169998 L 181.789993 103.379997 L 181.990005 103.379997 L 199.399994 60.169998 L 204.570007 60.169998 L 204.570007 109.300003 L 201.110001 109.300003 L 201.110001 72.07 C 201.110001 69.470001 201.240005 66.779999 201.509995 64.010002 L 201.240005 64.010002 L 182.860001 109.309998 L 180.679993 109.309998 Z M 248.979996 91.959999 L 229.020004 91.959999 L 222.160004 109.300003 L 218.360001 109.300003 L 238.119995 59.970001 L 240.300003 59.970001 L 259.660004 109.300003 L 255.800003 109.300003 L 248.979996 91.959999 Z M 230.259995 88.870003 L 247.830002 88.870003 L 241.139999 71.160004 C 240.580002 69.769997 239.910004 67.839996 239.119995 65.379997 C 238.520004 67.529999 237.850006 69.480003 237.139999 71.230003 L 230.25 88.870003 Z M 265.440002 121.699997 C 263.380005 121.699997 261.690002 121.400002 260.369995 120.790001 L 260.369995 117.830002 C 262.119995 118.279999 263.790009 118.5 265.380005 118.5 C 270.799988 118.5 273.51001 115.540001 273.51001 109.629997 L 273.51001 60.169998 L 276.940002 60.169998 L 276.940002 109.300003 C 276.940002 117.57 273.109985 121.699997 265.450012 121.699997 Z M 297.390015 109.300003 L 297.390015 60.169998 L 300.820007 60.169998 L 300.820007 109.300003 L 297.390015 109.300003 Z M 357.329987 109.300003 L 353.869995 109.300003 L 324.769989 65.68 L 324.5 65.68 C 324.769989 70.879997 324.899994 74.800003 324.899994 77.440002 L 324.899994 109.300003 L 321.609985 109.300003 L 321.609985 60.169998 L 325.040009 60.169998 L 354.109985 103.720001 L 354.309998 103.720001 C 354.109985 99.690002 354.01001 95.860001 354.01001 92.230003 L 354.01001 60.169998 L 357.339996 60.169998 L 357.339996 109.300003 Z M 413.839996 109.300003 L 410.380005 109.300003 L 381.279999 65.68 L 381.01001 65.68 C 381.279999 70.879997 381.410004 74.800003 381.410004 77.440002 L 381.410004 109.300003 L 378.119995 109.300003 L 378.119995 60.169998 L 381.549988 60.169998 L 410.619995 103.720001 L 410.820007 103.720001 C 410.619995 99.690002 410.519989 95.860001 410.519989 92.230003 L 410.519989 60.169998 L 413.850006 60.169998 L 413.850006 109.300003 Z"/>
</svg>
